<mxfile host="app.diagrams.net" modified="2021-10-06T14:48:12.216Z" agent="5.0 (Macintosh; Intel Mac OS X 10_15_7) AppleWebKit/537.36 (KHTML, like Gecko) Chrome/94.0.4606.71 Safari/537.36" etag="wBhTkpHB61VxWUzTzWL_" version="15.4.3" type="github">
  <diagram id="bHHtzNc7R4RSHn3qKxCd" name="Page-1">
    <mxGraphModel dx="1506" dy="1009" grid="1" gridSize="10" guides="1" tooltips="1" connect="1" arrows="1" fold="1" page="1" pageScale="1" pageWidth="827" pageHeight="1169" math="0" shadow="0">
      <root>
        <mxCell id="0" />
        <mxCell id="1" parent="0" />
        <mxCell id="pMqDu5kgbDKnAk67fy6q-1" value="교수" style="shape=umlLifeline;perimeter=lifelinePerimeter;container=1;collapsible=0;recursiveResize=0;rounded=0;shadow=0;strokeWidth=1;" vertex="1" parent="1">
          <mxGeometry x="100" y="80" width="120" height="400" as="geometry" />
        </mxCell>
        <mxCell id="pMqDu5kgbDKnAk67fy6q-2" value="" style="rounded=0;whiteSpace=wrap;html=1;" vertex="1" parent="pMqDu5kgbDKnAk67fy6q-1">
          <mxGeometry x="-10" y="-10" width="120" height="40" as="geometry" />
        </mxCell>
        <mxCell id="pMqDu5kgbDKnAk67fy6q-3" value="Professor" style="rounded=0;whiteSpace=wrap;html=1;" vertex="1" parent="pMqDu5kgbDKnAk67fy6q-1">
          <mxGeometry x="-20" y="-20" width="120" height="40" as="geometry" />
        </mxCell>
        <mxCell id="pMqDu5kgbDKnAk67fy6q-4" value="Resume Service" style="shape=umlLifeline;perimeter=lifelinePerimeter;container=1;collapsible=0;recursiveResize=0;rounded=0;shadow=0;strokeWidth=1;" vertex="1" parent="1">
          <mxGeometry x="300" y="80" width="100" height="400" as="geometry" />
        </mxCell>
        <mxCell id="pMqDu5kgbDKnAk67fy6q-5" value="" style="verticalAlign=bottom;endArrow=block;shadow=0;strokeWidth=1;" edge="1" parent="pMqDu5kgbDKnAk67fy6q-4">
          <mxGeometry relative="1" as="geometry">
            <mxPoint x="-127.5" y="133.00000000000023" as="sourcePoint" />
            <mxPoint x="37.49999999999977" y="133" as="targetPoint" />
          </mxGeometry>
        </mxCell>
        <mxCell id="pMqDu5kgbDKnAk67fy6q-7" value="Student" style="shape=umlLifeline;perimeter=lifelinePerimeter;container=1;collapsible=0;recursiveResize=0;rounded=0;shadow=0;strokeWidth=1;" vertex="1" parent="1">
          <mxGeometry x="480" y="80" width="105" height="400" as="geometry" />
        </mxCell>
        <mxCell id="pMqDu5kgbDKnAk67fy6q-12" value="&lt;span style=&quot;color: rgb(0 , 0 , 0) ; font-family: &amp;#34;helvetica&amp;#34; ; font-size: 11px ; font-style: normal ; font-weight: 400 ; letter-spacing: normal ; text-align: center ; text-indent: 0px ; text-transform: none ; word-spacing: 0px ; background-color: rgb(255 , 255 , 255) ; display: inline ; float: none&quot;&gt;Add Student&#39;s activity&lt;/span&gt;" style="rounded=1;whiteSpace=wrap;html=1;" vertex="1" parent="1">
          <mxGeometry x="200" y="223" width="110" height="40" as="geometry" />
        </mxCell>
        <mxCell id="pMqDu5kgbDKnAk67fy6q-35" value="" style="verticalAlign=bottom;endArrow=block;shadow=0;strokeWidth=1;" edge="1" parent="1">
          <mxGeometry x="-0.697" y="30" relative="1" as="geometry">
            <mxPoint x="524.5" y="150" as="sourcePoint" />
            <mxPoint x="359.5" y="150" as="targetPoint" />
            <mxPoint as="offset" />
          </mxGeometry>
        </mxCell>
        <mxCell id="pMqDu5kgbDKnAk67fy6q-36" value="&lt;span style=&quot;color: rgb(0 , 0 , 0) ; font-family: &amp;#34;helvetica&amp;#34; ; font-size: 11px ; font-style: normal ; font-weight: 400 ; letter-spacing: normal ; text-align: center ; text-indent: 0px ; text-transform: none ; word-spacing: 0px ; background-color: rgb(255 , 255 , 255) ; display: inline ; float: none&quot;&gt;Write Own Resume&lt;/span&gt;" style="rounded=1;whiteSpace=wrap;html=1;" vertex="1" parent="1">
          <mxGeometry x="387" y="160" width="109" height="40" as="geometry" />
        </mxCell>
        <mxCell id="pMqDu5kgbDKnAk67fy6q-39" value="" style="verticalAlign=bottom;endArrow=block;shadow=0;strokeWidth=1;" edge="1" parent="1">
          <mxGeometry relative="1" as="geometry">
            <mxPoint x="359" y="280.0000000000002" as="sourcePoint" />
            <mxPoint x="523.9999999999998" y="280" as="targetPoint" />
          </mxGeometry>
        </mxCell>
        <mxCell id="pMqDu5kgbDKnAk67fy6q-40" value="&lt;span style=&quot;color: rgb(0 , 0 , 0) ; font-family: &amp;#34;helvetica&amp;#34; ; font-size: 11px ; font-style: normal ; font-weight: 400 ; letter-spacing: normal ; text-align: center ; text-indent: 0px ; text-transform: none ; word-spacing: 0px ; background-color: rgb(255 , 255 , 255) ; display: inline ; float: none&quot;&gt;Alert Change of Resume&lt;br&gt;&lt;/span&gt;" style="rounded=1;whiteSpace=wrap;html=1;" vertex="1" parent="1">
          <mxGeometry x="386.5" y="290" width="110" height="40" as="geometry" />
        </mxCell>
        <mxCell id="pMqDu5kgbDKnAk67fy6q-41" value="" style="verticalAlign=bottom;endArrow=block;shadow=0;strokeWidth=1;" edge="1" parent="1">
          <mxGeometry x="-0.697" y="30" relative="1" as="geometry">
            <mxPoint x="524" y="370" as="sourcePoint" />
            <mxPoint x="359" y="370" as="targetPoint" />
            <mxPoint as="offset" />
          </mxGeometry>
        </mxCell>
        <mxCell id="pMqDu5kgbDKnAk67fy6q-42" value="&lt;span style=&quot;color: rgb(0 , 0 , 0) ; font-family: &amp;#34;helvetica&amp;#34; ; font-size: 11px ; font-style: normal ; font-weight: 400 ; letter-spacing: normal ; text-align: center ; text-indent: 0px ; text-transform: none ; word-spacing: 0px ; background-color: rgb(255 , 255 , 255) ; display: inline ; float: none&quot;&gt;Check Changes and Approve the Changes&lt;/span&gt;" style="rounded=1;whiteSpace=wrap;html=1;" vertex="1" parent="1">
          <mxGeometry x="386.5" y="380" width="109" height="40" as="geometry" />
        </mxCell>
      </root>
    </mxGraphModel>
  </diagram>
</mxfile>
